<svg width="115" height="106" viewBox="0 0 115 106" version="1.1" xmlns="http://www.w3.org/2000/svg" xmlns:xlink="http://www.w3.org/1999/xlink">
<title>Logo</title>
<desc>Created using Figma</desc>
<g id="Canvas" transform="translate(-1663 488)">
<g id="Logo">
<g id="Vector">
<use xlink:href="#path0_fill" transform="matrix(-1 0 0 1 1778 -487.962)" fill="#0D66B2"/>
</g>
<g id="Vector">
<use xlink:href="#path1_fill" transform="matrix(-1 0 0 1 1747.91 -488)" fill="#1E74BB"/>
</g>
<g id="Vector">
<use xlink:href="#path2_fill" transform="matrix(-1 0 0 1 1704.14 -487.979)" fill="#2685C7"/>
</g>
<g id="Vector">
<use xlink:href="#path3_fill" transform="matrix(-1 0 0 1 1765.99 -396.956)" fill="#0D66B2"/>
</g>
<g id="Vector">
<use xlink:href="#path4_fill" transform="matrix(-1 0 0 1 1730.03 -402.592)" fill="#0D66B2"/>
</g>
<g id="Vector">
<use xlink:href="#path5_fill" transform="matrix(-1 0 0 1 1773.79 -463.785)" fill="#FFFFFF"/>
</g>
<g id="Vector">
<use xlink:href="#path6_fill" transform="matrix(-1 0 0 1 1729.86 -438.523)" fill="#FFFFFF"/>
</g>
<g id="Vector">
<use xlink:href="#path7_fill" transform="matrix(-1 0 0 1 1687.27 -438.652)" fill="#2685C7"/>
</g>
</g>
</g>
<defs>
<path id="path0_fill" fill-rule="evenodd" d="M 0 63.079C 16.9303 62.4811 29.1917 73.7559 31.7575 89.8994C 34.3864 79.073 30.3484 68.8659 21.4942 63.5702C 21.4942 63.5702 30.3274 65.1717 34.4706 73.6705C 46.3744 70.9159 57.7734 77.685 59.6032 89.9634C 72.8319 80.3115 95.4828 83.7281 106.062 100.726C 104.737 90.8389 97.7332 79.9699 84.7988 79.1371C 84.7988 79.1371 90.2881 77.9199 96.955 79.6709C 97.0392 44.9497 96.9761 34.7853 96.9761 3.18191e-10L 0.14722 3.18191e-10C 0.14722 28.9984 0 33.8244 0 63.079Z"/>
<path id="path1_fill" fill-rule="evenodd" d="M 60.7703 80.3969C 58.9405 79.735 56.9005 79.3293 54.7343 79.1584C 54.7343 79.1584 -0.872906 55.4557 0.0104146 -3.18191e-10L 66.9115 -3.18191e-10C 66.9115 34.8066 66.9746 44.9497 66.8904 79.6496C 60.2235 77.9199 54.7343 79.1371 54.7343 79.1371L 60.7703 80.3969Z"/>
<path id="path2_fill" fill-rule="evenodd" d="M 1.55638 0L 23.1136 0C 23.1136 34.8067 23.1767 44.9497 23.0926 79.6496C 23.0926 79.6496 -7.08755 43.7112 1.55638 0Z"/>
<path id="path3_fill" fill-rule="evenodd" d="M 29.2127 14.9561C 29.2127 14.9561 22.2092 2.05841 -3.20914e-07 2.42142C -3.20914e-07 2.40007 24.3334 -8.1487 29.2127 14.9561Z"/>
<path id="path4_fill" fill-rule="evenodd" d="M 1.28366e-06 0.326865C 1.28366e-06 0.326865 15.8787 2.41954 19.412 18.4135C 19.412 18.4135 27.6353 11.9647 40.3173 17.0042C 40.3173 17.0042 32.3253 8.67619 22.5878 12.6693C 22.5878 12.6693 18.4446 -2.38506 1.28366e-06 0.326865Z"/>
<path id="path5_fill" fill-rule="evenodd" d="M 62.842 13.0044L 67.4058 13.6024L 70.161 2.77599L 67.2166 6.51665e-07L 59.6663 10.805C 59.6663 10.805 57.0163 14.0294 53.7775 13.282L 21.8727 2.47704C 21.8727 2.47704 10.1372 -0.555199 4.96344 3.86503C 5.63645 3.92909 6.30946 4.03586 6.9404 4.18534L 5.4051 5.65875C 4.56385 5.50927 3.80671 5.42386 3.21783 5.40251C -0.462673 8.71234 -0.799176 9.45972 1.26191 13.0685C 3.57537 17.1471 11.9249 20.3074 26.731 23.9589L 41.0114 27.4609C 41.3058 25.9662 41.9788 25.0693 41.9788 25.0693C 41.5161 26.5427 41.4951 28.4432 41.9578 29.8953C 42.3994 31.3046 43.6613 32.6286 46.9002 32.4791L 51.8636 32.415C 55.1655 32.3723 55.8596 27.9948 54.2612 25.3469C 54.2612 25.3469 55.8385 26.3719 55.8385 29.3401C 55.8385 29.3401 57.8996 28.5713 59.7294 27.5037L 105.83 29.5963L 110.794 21.4178L 107.618 22.7204L 103.622 27.162L 49.6553 21.0762L 64.84 21.3538L 66.0809 18.2575L 77.5009 19.0689L 75.503 17.8304L 62.842 13.0044ZM 6.2043 5.80823C 7.08762 5.97906 8.05507 6.25666 9.08561 6.61967L 10.5788 5.18897C 9.69552 4.89001 8.72807 4.56971 7.65547 4.33482L 6.2043 5.80823ZM 9.73758 6.87591C 10.4947 7.17487 11.2939 7.55923 12.0721 7.98631C 12.0721 7.98631 13.8597 8.15714 14.6589 6.96133C 14.6589 6.96133 13.2709 6.1926 11.1888 5.40251L 9.73758 6.87591ZM 44.4395 23.0407C 43.5351 22.9553 42.6939 24.6423 42.5677 26.799C 42.4205 28.9344 43.0514 30.7281 43.9347 30.8135C 44.8391 30.8776 45.6803 29.1906 45.8065 27.0552C 45.9538 24.8985 45.3228 23.1048 44.4395 23.0407Z"/>
<path id="path6_fill" fill-rule="evenodd" d="M 0.968239 3.75826C 1.19958 3.20306 1.34681 2.49839 1.4099 1.75101C 1.45196 1.1104 1.4099 0.512492 1.32577 1.30333e-06C 0.610704 0.10677 0.042854 0.896859 0.000791048 1.85778C -0.0202404 2.73328 0.379358 3.48066 0.968239 3.75826Z"/>
<path id="path7_fill" fill-rule="evenodd" d="M 0.231346 6.53426L 16.9514 6.38478L 20.2954 0L 17.9609 1.1104L 15.1637 4.16399L -1.28366e-06 3.6515L 0.231346 6.53426Z"/>
</defs>
</svg>
